# xmcd
#
# Track frame offsets: 
#        150
#        18207
#        37237
#        62817
#        78607
#        95550
#        120887
#        136850
#        153307
#        175642
#
# Disc length: 2524 seconds
#
# Revision: 0
# Processed by: cddbd v1.5.2PL0 Copyright (c) Steve Scherf et al.
# Submitted via: ExactAudioCopy v1.0b1
#
DISCID=7609da0a
DTITLE=Diane Durrett - Rhythm Of Life
DYEAR=1998
DGENRE=Soul
TTITLE0=Take Me As I Am
TTITLE1=Love Has a Right To Be Wrong
TTITLE2=Sweet Savin' Grace
TTITLE3=From the Heart of a Soul
TTITLE4=Don't That Bring You Back?
TTITLE5=Miss Understood
TTITLE6=Blue Eyed Soul
TTITLE7=It Is What It Is
TTITLE8=There Is a Light
TTITLE9=Only the Broken Know
EXTD=
EXTT0=
EXTT1=
EXTT2=
EXTT3=
EXTT4=
EXTT5=
EXTT6=
EXTT7=
EXTT8=
EXTT9=
PLAYORDER=
